# xmcd
#
# Track frame offsets:
#	150
#	12654
#	28311
#	47226
#	58769
#	72290
#	85493
#	101479
#	113889
#	125004
#	136093
#	148136
#	159897
#	172246
#	186555
#
# Disc length: 2692 seconds
#
# Revision: 0
# Processed by: cddbd v1.5.2PL0 Copyright (c) Steve Scherf et al.
# Submitted via: EasyCDDAExtractor 10.0.3.1
#
DISCID=e60a820f
DTITLE=larry pierce - pussy whipped
DYEAR=2007
DGENRE=Country
TTITLE0=pussywhipped
TTITLE1=turn the fuckin lights out
TTITLE2=in a heartbeat
TTITLE3=sleep rigth nect to your pussy
TTITLE4=will you swallow my cum
TTITLE5=the shits done hit the fan
TTITLE6=she only likes girls
TTITLE7=yeast infection
TTITLE8=scumbag
TTITLE9=itty bitty titty louise
TTITLE10=barter fuckin'
TTITLE11=worthless cunt
TTITLE12=every time i shit
TTITLE13=high matenance girl
TTITLE14=my pecker started talking' again
EXTD=
EXTT0=
EXTT1=
EXTT2=
EXTT3=
EXTT4=
EXTT5=
EXTT6=
EXTT7=
EXTT8=
EXTT9=
EXTT10=
EXTT11=
EXTT12=
EXTT13=
EXTT14=
PLAYORDER=
